<svg width="62" height="54" viewBox="0 0 62 54" fill="none" xmlns="http://www.w3.org/2000/svg">
<path d="M41.5921 9.28208H50.7416C50.9687 9.28208 51.1726 9.46625 51.2454 9.7425L60.9802 47.0513C61.0938 47.4859 60.8375 47.9316 60.4764 47.9316H52.6752C52.4393 47.9316 52.2326 47.7327 52.1656 47.4454L50.762 41.2795C50.6979 40.9922 50.4883 40.7933 50.2524 40.7933H42.0347C41.7959 40.7933 41.5892 40.9922 41.5251 41.2831L40.1594 47.4417C40.0953 47.729 39.8857 47.9316 39.6498 47.9316H31.8515C31.4904 47.9316 31.237 47.4859 31.3477 47.0513L41.0912 9.7425C41.164 9.46993 41.365 9.28208 41.595 9.28208H41.5921ZM48.0713 32.3068C48.4237 32.3068 48.677 31.8832 48.5809 31.4522L47.3637 26.034C47.1453 24.9953 46.8774 23.5772 46.6444 22.2991C46.5163 21.5956 45.7213 21.6103 45.6107 22.3175C45.4068 23.5919 45.1651 24.999 44.9263 26.034L43.7091 31.4522C43.613 31.8795 43.8664 32.3068 44.2187 32.3068H48.0713Z" fill="#17A550"/>
<path d="M37.3289 24.1555C36.9504 22.3433 36.4728 20.5274 35.8962 18.7225C38.4967 16.7593 41.4028 15.1313 44.5682 13.9452C38.9975 10.2545 32.9551 8.14392 26.8399 7.62457C26.5371 13.4369 26.2284 19.2493 25.9226 25.0616C29.4549 25.36 32.9551 26.4281 36.2573 28.2625L37.3289 24.1555Z" fill="#FFC728"/>
<path d="M4.73337 4.29154L4.32065 4.53164C3.75082 4.86317 3.50135 5.71622 3.76344 6.437L20.3853 52.1484C20.6474 52.8691 21.3218 53.1847 21.8917 52.8532L22.3044 52.6131C22.8742 52.2815 23.1237 51.4285 22.8616 50.7077L6.2397 4.99635C5.97761 4.27557 5.3032 3.96002 4.73337 4.29154Z" fill="#768F9C"/>
<path d="M5.01285 7.91318C6.56903 7.47788 7.55158 5.52929 7.20744 3.56089C6.8633 1.59249 5.32278 0.349673 3.7666 0.784975C2.21042 1.22028 1.22787 3.16886 1.57201 5.13726C1.91615 7.10566 3.45667 8.34848 5.01285 7.91318Z" fill="#768F9C"/>
<path d="M33.0396 8.70379C31.1147 8.15865 28.1823 7.73507 26.8428 7.62457C26.54 13.4369 26.2313 19.2493 25.9255 25.0616C26.8457 25.139 29.5655 25.6988 30.4799 25.883C31.4321 19.3487 32.3174 14.4609 33.0425 8.70747L33.0396 8.70379Z" fill="#FEAD1C"/>
<path d="M27.8271 24.1997C22.0555 23.2715 16.1208 24.3581 10.6958 27.4853C8.65447 21.8203 6.61607 16.1589 4.57475 10.4939C11.9916 6.2212 20.0579 4.54527 27.9698 5.44033C28.9133 5.54715 29.5947 6.63742 29.4753 7.82347C28.9249 13.2822 28.3774 18.7373 27.8271 24.196V24.1997Z" fill="#FFC728"/>
</svg>
